<svg xmlns="http://www.w3.org/2000/svg" xmlns:xlink="http://www.w3.org/1999/xlink" width="500" zoomAndPan="magnify" viewBox="0 0 375 374.999991" height="500" preserveAspectRatio="xMidYMid meet" version="1.0"><defs><g/><clipPath id="9d3765afdb"><path d="M 92.367188 92.367188 L 282.632812 92.367188 L 282.632812 283 L 92.367188 283 Z M 92.367188 92.367188 " clip-rule="nonzero"/></clipPath><clipPath id="d768486f12"><path d="M 111.117188 92.367188 L 263.882812 92.367188 C 274.238281 92.367188 282.632812 100.761719 282.632812 111.117188 L 282.632812 264.042969 C 282.632812 274.398438 274.238281 282.792969 263.882812 282.792969 L 111.117188 282.792969 C 100.761719 282.792969 92.367188 274.398438 92.367188 264.042969 L 92.367188 111.117188 C 92.367188 100.761719 100.761719 92.367188 111.117188 92.367188 Z M 111.117188 92.367188 " clip-rule="nonzero"/></clipPath><clipPath id="dc341f6caf"><path d="M 11.703125 113.390625 L 75.804688 113.390625 L 75.804688 134.703125 L 11.703125 134.703125 Z M 11.703125 113.390625 " clip-rule="nonzero"/></clipPath><clipPath id="60509843b9"><path d="M 22.359375 113.390625 L 65.101562 113.390625 C 67.925781 113.390625 70.636719 114.515625 72.636719 116.511719 C 74.632812 118.511719 75.757812 121.222656 75.757812 124.046875 C 75.757812 126.875 74.632812 129.585938 72.636719 131.582031 C 70.636719 133.582031 67.925781 134.703125 65.101562 134.703125 L 22.359375 134.703125 C 19.53125 134.703125 16.824219 133.582031 14.824219 131.582031 C 12.824219 129.585938 11.703125 126.875 11.703125 124.046875 C 11.703125 121.222656 12.824219 118.511719 14.824219 116.511719 C 16.824219 114.515625 19.53125 113.390625 22.359375 113.390625 Z M 22.359375 113.390625 " clip-rule="nonzero"/></clipPath><clipPath id="440b74125f"><path d="M 11.703125 155.738281 L 75.804688 155.738281 L 75.804688 177.050781 L 11.703125 177.050781 Z M 11.703125 155.738281 " clip-rule="nonzero"/></clipPath><clipPath id="f57eb24d41"><path d="M 22.359375 155.738281 L 65.101562 155.738281 C 67.925781 155.738281 70.636719 156.859375 72.636719 158.859375 C 74.632812 160.859375 75.757812 163.566406 75.757812 166.394531 C 75.757812 169.21875 74.632812 171.929688 72.636719 173.929688 C 70.636719 175.929688 67.925781 177.050781 65.101562 177.050781 L 22.359375 177.050781 C 19.53125 177.050781 16.824219 175.929688 14.824219 173.929688 C 12.824219 171.929688 11.703125 169.21875 11.703125 166.394531 C 11.703125 163.566406 12.824219 160.859375 14.824219 158.859375 C 16.824219 156.859375 19.53125 155.738281 22.359375 155.738281 Z M 22.359375 155.738281 " clip-rule="nonzero"/></clipPath><clipPath id="9d9a19ca63"><path d="M 11.703125 198.050781 L 75.804688 198.050781 L 75.804688 219.363281 L 11.703125 219.363281 Z M 11.703125 198.050781 " clip-rule="nonzero"/></clipPath><clipPath id="24eb09fe49"><path d="M 22.359375 198.050781 L 65.101562 198.050781 C 67.925781 198.050781 70.636719 199.171875 72.636719 201.171875 C 74.632812 203.167969 75.757812 205.878906 75.757812 208.707031 C 75.757812 211.53125 74.632812 214.242188 72.636719 216.242188 C 70.636719 218.238281 67.925781 219.363281 65.101562 219.363281 L 22.359375 219.363281 C 19.53125 219.363281 16.824219 218.238281 14.824219 216.242188 C 12.824219 214.242188 11.703125 211.53125 11.703125 208.707031 C 11.703125 205.878906 12.824219 203.167969 14.824219 201.171875 C 16.824219 199.171875 19.53125 198.050781 22.359375 198.050781 Z M 22.359375 198.050781 " clip-rule="nonzero"/></clipPath><clipPath id="313e75d53f"><path d="M 11.703125 240.363281 L 75.804688 240.363281 L 75.804688 261.675781 L 11.703125 261.675781 Z M 11.703125 240.363281 " clip-rule="nonzero"/></clipPath><clipPath id="f5dd60d7b5"><path d="M 22.359375 240.363281 L 65.101562 240.363281 C 67.925781 240.363281 70.636719 241.484375 72.636719 243.484375 C 74.632812 245.480469 75.757812 248.191406 75.757812 251.019531 C 75.757812 253.84375 74.632812 256.554688 72.636719 258.554688 C 70.636719 260.550781 67.925781 261.675781 65.101562 261.675781 L 22.359375 261.675781 C 19.53125 261.675781 16.824219 260.550781 14.824219 258.554688 C 12.824219 256.554688 11.703125 253.84375 11.703125 251.019531 C 11.703125 248.191406 12.824219 245.480469 14.824219 243.484375 C 16.824219 241.484375 19.53125 240.363281 22.359375 240.363281 Z M 22.359375 240.363281 " clip-rule="nonzero"/></clipPath><clipPath id="8daea1ad45"><path d="M 299.132812 113.4375 L 362.652344 113.4375 L 362.652344 134.75 L 299.132812 134.75 Z M 299.132812 113.4375 " clip-rule="nonzero"/></clipPath><clipPath id="4cac8fc76f"><path d="M 309.789062 113.4375 L 351.972656 113.4375 C 354.796875 113.4375 357.507812 114.5625 359.507812 116.558594 C 361.503906 118.558594 362.628906 121.269531 362.628906 124.09375 C 362.628906 126.921875 361.503906 129.632812 359.507812 131.628906 C 357.507812 133.628906 354.796875 134.75 351.972656 134.75 L 309.789062 134.75 C 306.960938 134.75 304.25 133.628906 302.253906 131.628906 C 300.253906 129.632812 299.132812 126.921875 299.132812 124.09375 C 299.132812 121.269531 300.253906 118.558594 302.253906 116.558594 C 304.25 114.5625 306.960938 113.4375 309.789062 113.4375 Z M 309.789062 113.4375 " clip-rule="nonzero"/></clipPath><clipPath id="d8a88e4773"><path d="M 299.132812 155.785156 L 362.652344 155.785156 L 362.652344 177.097656 L 299.132812 177.097656 Z M 299.132812 155.785156 " clip-rule="nonzero"/></clipPath><clipPath id="bd8a930b55"><path d="M 309.789062 155.785156 L 351.972656 155.785156 C 354.796875 155.785156 357.507812 156.910156 359.507812 158.90625 C 361.503906 160.90625 362.628906 163.617188 362.628906 166.441406 C 362.628906 169.269531 361.503906 171.976562 359.507812 173.976562 C 357.507812 175.976562 354.796875 177.097656 351.972656 177.097656 L 309.789062 177.097656 C 306.960938 177.097656 304.25 175.976562 302.253906 173.976562 C 300.253906 171.976562 299.132812 169.269531 299.132812 166.441406 C 299.132812 163.617188 300.253906 160.90625 302.253906 158.90625 C 304.25 156.910156 306.960938 155.785156 309.789062 155.785156 Z M 309.789062 155.785156 " clip-rule="nonzero"/></clipPath><clipPath id="b7ba3e9bfa"><path d="M 299.132812 198.097656 L 362.652344 198.097656 L 362.652344 219.410156 L 299.132812 219.410156 Z M 299.132812 198.097656 " clip-rule="nonzero"/></clipPath><clipPath id="222ca62915"><path d="M 309.789062 198.097656 L 351.972656 198.097656 C 354.796875 198.097656 357.507812 199.21875 359.507812 201.21875 C 361.503906 203.21875 362.628906 205.925781 362.628906 208.753906 C 362.628906 211.578125 361.503906 214.289062 359.507812 216.289062 C 357.507812 218.285156 354.796875 219.410156 351.972656 219.410156 L 309.789062 219.410156 C 306.960938 219.410156 304.25 218.285156 302.253906 216.289062 C 300.253906 214.289062 299.132812 211.578125 299.132812 208.753906 C 299.132812 205.925781 300.253906 203.21875 302.253906 201.21875 C 304.25 199.21875 306.960938 198.097656 309.789062 198.097656 Z M 309.789062 198.097656 " clip-rule="nonzero"/></clipPath><clipPath id="207ad48085"><path d="M 299.132812 240.410156 L 362.652344 240.410156 L 362.652344 261.722656 L 299.132812 261.722656 Z M 299.132812 240.410156 " clip-rule="nonzero"/></clipPath><clipPath id="7c9f231f57"><path d="M 309.789062 240.410156 L 351.972656 240.410156 C 354.796875 240.410156 357.507812 241.53125 359.507812 243.53125 C 361.503906 245.527344 362.628906 248.238281 362.628906 251.066406 C 362.628906 253.890625 361.503906 256.601562 359.507812 258.601562 C 357.507812 260.597656 354.796875 261.722656 351.972656 261.722656 L 309.789062 261.722656 C 306.960938 261.722656 304.25 260.597656 302.253906 258.601562 C 300.253906 256.601562 299.132812 253.890625 299.132812 251.066406 C 299.132812 248.238281 300.253906 245.527344 302.253906 243.53125 C 304.25 241.53125 306.960938 240.410156 309.789062 240.410156 Z M 309.789062 240.410156 " clip-rule="nonzero"/></clipPath><clipPath id="eea855c101"><path d="M 240.324219 11.878906 L 261.636719 11.878906 L 261.636719 75.398438 L 240.324219 75.398438 Z M 240.324219 11.878906 " clip-rule="nonzero"/></clipPath><clipPath id="1404b6a495"><path d="M 261.636719 22.535156 L 261.636719 64.71875 C 261.636719 67.546875 260.511719 70.257812 258.515625 72.253906 C 256.515625 74.253906 253.804688 75.375 250.980469 75.375 C 248.152344 75.375 245.441406 74.253906 243.445312 72.253906 C 241.445312 70.257812 240.324219 67.546875 240.324219 64.71875 L 240.324219 22.535156 C 240.324219 19.710938 241.445312 17 243.445312 15 C 245.441406 13.003906 248.152344 11.878906 250.980469 11.878906 C 253.804688 11.878906 256.515625 13.003906 258.515625 15 C 260.511719 17 261.636719 19.710938 261.636719 22.535156 Z M 261.636719 22.535156 " clip-rule="nonzero"/></clipPath><clipPath id="849364efe7"><path d="M 197.976562 11.878906 L 219.289062 11.878906 L 219.289062 75.398438 L 197.976562 75.398438 Z M 197.976562 11.878906 " clip-rule="nonzero"/></clipPath><clipPath id="b655fb8711"><path d="M 219.289062 22.535156 L 219.289062 64.71875 C 219.289062 67.546875 218.167969 70.257812 216.167969 72.253906 C 214.167969 74.253906 211.460938 75.375 208.632812 75.375 C 205.808594 75.375 203.097656 74.253906 201.097656 72.253906 C 199.101562 70.257812 197.976562 67.546875 197.976562 64.71875 L 197.976562 22.535156 C 197.976562 19.710938 199.101562 17 201.097656 15 C 203.097656 13.003906 205.808594 11.878906 208.632812 11.878906 C 211.460938 11.878906 214.167969 13.003906 216.167969 15 C 218.167969 17 219.289062 19.710938 219.289062 22.535156 Z M 219.289062 22.535156 " clip-rule="nonzero"/></clipPath><clipPath id="8d62a61782"><path d="M 155.664062 11.878906 L 176.976562 11.878906 L 176.976562 75.398438 L 155.664062 75.398438 Z M 155.664062 11.878906 " clip-rule="nonzero"/></clipPath><clipPath id="567e251624"><path d="M 176.976562 22.535156 L 176.976562 64.71875 C 176.976562 67.546875 175.855469 70.257812 173.855469 72.253906 C 171.859375 74.253906 169.148438 75.375 166.320312 75.375 C 163.496094 75.375 160.785156 74.253906 158.785156 72.253906 C 156.789062 70.257812 155.664062 67.546875 155.664062 64.71875 L 155.664062 22.535156 C 155.664062 19.710938 156.789062 17 158.785156 15 C 160.785156 13.003906 163.496094 11.878906 166.320312 11.878906 C 169.148438 11.878906 171.859375 13.003906 173.855469 15 C 175.855469 17 176.976562 19.710938 176.976562 22.535156 Z M 176.976562 22.535156 " clip-rule="nonzero"/></clipPath><clipPath id="dda2a2b13f"><path d="M 113.351562 11.878906 L 134.664062 11.878906 L 134.664062 75.398438 L 113.351562 75.398438 Z M 113.351562 11.878906 " clip-rule="nonzero"/></clipPath><clipPath id="d5a38f0b8f"><path d="M 134.664062 22.535156 L 134.664062 64.71875 C 134.664062 67.546875 133.542969 70.257812 131.542969 72.253906 C 129.546875 74.253906 126.835938 75.375 124.007812 75.375 C 121.183594 75.375 118.472656 74.253906 116.472656 72.253906 C 114.476562 70.257812 113.351562 67.546875 113.351562 64.71875 L 113.351562 22.535156 C 113.351562 19.710938 114.476562 17 116.472656 15 C 118.472656 13.003906 121.183594 11.878906 124.007812 11.878906 C 126.835938 11.878906 129.546875 13.003906 131.542969 15 C 133.542969 17 134.664062 19.710938 134.664062 22.535156 Z M 134.664062 22.535156 " clip-rule="nonzero"/></clipPath><clipPath id="9a35f41a76"><path d="M 240.324219 299.621094 L 261.636719 299.621094 L 261.636719 363.140625 L 240.324219 363.140625 Z M 240.324219 299.621094 " clip-rule="nonzero"/></clipPath><clipPath id="0d2cf8481c"><path d="M 261.636719 310.277344 L 261.636719 352.460938 C 261.636719 355.285156 260.511719 357.996094 258.515625 359.996094 C 256.515625 361.992188 253.804688 363.117188 250.980469 363.117188 C 248.152344 363.117188 245.441406 361.992188 243.445312 359.996094 C 241.445312 357.996094 240.324219 355.285156 240.324219 352.460938 L 240.324219 310.277344 C 240.324219 307.449219 241.445312 304.738281 243.445312 302.742188 C 245.441406 300.742188 248.152344 299.621094 250.980469 299.621094 C 253.804688 299.621094 256.515625 300.742188 258.515625 302.742188 C 260.511719 304.738281 261.636719 307.449219 261.636719 310.277344 Z M 261.636719 310.277344 " clip-rule="nonzero"/></clipPath><clipPath id="03e742aca6"><path d="M 197.976562 299.621094 L 219.289062 299.621094 L 219.289062 363.140625 L 197.976562 363.140625 Z M 197.976562 299.621094 " clip-rule="nonzero"/></clipPath><clipPath id="de61ba3ea9"><path d="M 219.289062 310.277344 L 219.289062 352.460938 C 219.289062 355.285156 218.167969 357.996094 216.167969 359.996094 C 214.167969 361.992188 211.460938 363.117188 208.632812 363.117188 C 205.808594 363.117188 203.097656 361.992188 201.097656 359.996094 C 199.101562 357.996094 197.976562 355.285156 197.976562 352.460938 L 197.976562 310.277344 C 197.976562 307.449219 199.101562 304.738281 201.097656 302.742188 C 203.097656 300.742188 205.808594 299.621094 208.632812 299.621094 C 211.460938 299.621094 214.167969 300.742188 216.167969 302.742188 C 218.167969 304.738281 219.289062 307.449219 219.289062 310.277344 Z M 219.289062 310.277344 " clip-rule="nonzero"/></clipPath><clipPath id="9714098e58"><path d="M 155.664062 299.621094 L 176.976562 299.621094 L 176.976562 363.140625 L 155.664062 363.140625 Z M 155.664062 299.621094 " clip-rule="nonzero"/></clipPath><clipPath id="59f9a69a56"><path d="M 176.976562 310.277344 L 176.976562 352.460938 C 176.976562 355.285156 175.855469 357.996094 173.855469 359.996094 C 171.859375 361.992188 169.148438 363.117188 166.320312 363.117188 C 163.496094 363.117188 160.785156 361.992188 158.785156 359.996094 C 156.789062 357.996094 155.664062 355.285156 155.664062 352.460938 L 155.664062 310.277344 C 155.664062 307.449219 156.789062 304.738281 158.785156 302.742188 C 160.785156 300.742188 163.496094 299.621094 166.320312 299.621094 C 169.148438 299.621094 171.859375 300.742188 173.855469 302.742188 C 175.855469 304.738281 176.976562 307.449219 176.976562 310.277344 Z M 176.976562 310.277344 " clip-rule="nonzero"/></clipPath><clipPath id="cc8595f0c0"><path d="M 113.351562 299.621094 L 134.664062 299.621094 L 134.664062 363.140625 L 113.351562 363.140625 Z M 113.351562 299.621094 " clip-rule="nonzero"/></clipPath><clipPath id="5e4276df1d"><path d="M 134.664062 310.277344 L 134.664062 352.460938 C 134.664062 355.285156 133.542969 357.996094 131.542969 359.996094 C 129.546875 361.992188 126.835938 363.117188 124.007812 363.117188 C 121.183594 363.117188 118.472656 361.992188 116.472656 359.996094 C 114.476562 357.996094 113.351562 355.285156 113.351562 352.460938 L 113.351562 310.277344 C 113.351562 307.449219 114.476562 304.738281 116.472656 302.742188 C 118.472656 300.742188 121.183594 299.621094 124.007812 299.621094 C 126.835938 299.621094 129.546875 300.742188 131.542969 302.742188 C 133.542969 304.738281 134.664062 307.449219 134.664062 310.277344 Z M 134.664062 310.277344 " clip-rule="nonzero"/></clipPath></defs><g clip-path="url(#9d3765afdb)"><g clip-path="url(#d768486f12)"><path fill="#ba066c" d="M 92.367188 92.367188 L 282.632812 92.367188 L 282.632812 282.632812 L 92.367188 282.632812 Z M 92.367188 92.367188 " fill-opacity="1" fill-rule="nonzero"/></g></g><g clip-path="url(#dc341f6caf)"><g clip-path="url(#60509843b9)"><path fill="#ba066c" d="M 11.703125 113.390625 L 75.722656 113.390625 L 75.722656 134.703125 L 11.703125 134.703125 Z M 11.703125 113.390625 " fill-opacity="1" fill-rule="nonzero"/></g></g><g clip-path="url(#440b74125f)"><g clip-path="url(#f57eb24d41)"><path fill="#ba066c" d="M 11.703125 155.738281 L 75.722656 155.738281 L 75.722656 177.050781 L 11.703125 177.050781 Z M 11.703125 155.738281 " fill-opacity="1" fill-rule="nonzero"/></g></g><g clip-path="url(#9d9a19ca63)"><g clip-path="url(#24eb09fe49)"><path fill="#ba066c" d="M 11.703125 198.050781 L 75.722656 198.050781 L 75.722656 219.363281 L 11.703125 219.363281 Z M 11.703125 198.050781 " fill-opacity="1" fill-rule="nonzero"/></g></g><g clip-path="url(#313e75d53f)"><g clip-path="url(#f5dd60d7b5)"><path fill="#ba066c" d="M 11.703125 240.363281 L 75.722656 240.363281 L 75.722656 261.675781 L 11.703125 261.675781 Z M 11.703125 240.363281 " fill-opacity="1" fill-rule="nonzero"/></g></g><g clip-path="url(#8daea1ad45)"><g clip-path="url(#4cac8fc76f)"><path fill="#ba066c" d="M 299.132812 113.4375 L 362.652344 113.4375 L 362.652344 134.75 L 299.132812 134.75 Z M 299.132812 113.4375 " fill-opacity="1" fill-rule="nonzero"/></g></g><g clip-path="url(#d8a88e4773)"><g clip-path="url(#bd8a930b55)"><path fill="#ba066c" d="M 299.132812 155.785156 L 362.652344 155.785156 L 362.652344 177.097656 L 299.132812 177.097656 Z M 299.132812 155.785156 " fill-opacity="1" fill-rule="nonzero"/></g></g><g clip-path="url(#b7ba3e9bfa)"><g clip-path="url(#222ca62915)"><path fill="#ba066c" d="M 299.132812 198.097656 L 362.652344 198.097656 L 362.652344 219.410156 L 299.132812 219.410156 Z M 299.132812 198.097656 " fill-opacity="1" fill-rule="nonzero"/></g></g><g clip-path="url(#207ad48085)"><g clip-path="url(#7c9f231f57)"><path fill="#ba066c" d="M 299.132812 240.410156 L 362.652344 240.410156 L 362.652344 261.722656 L 299.132812 261.722656 Z M 299.132812 240.410156 " fill-opacity="1" fill-rule="nonzero"/></g></g><g clip-path="url(#eea855c101)"><g clip-path="url(#1404b6a495)"><path fill="#ba066c" d="M 261.636719 11.878906 L 261.636719 75.398438 L 240.324219 75.398438 L 240.324219 11.878906 Z M 261.636719 11.878906 " fill-opacity="1" fill-rule="nonzero"/></g></g><g clip-path="url(#849364efe7)"><g clip-path="url(#b655fb8711)"><path fill="#ba066c" d="M 219.289062 11.878906 L 219.289062 75.398438 L 197.976562 75.398438 L 197.976562 11.878906 Z M 219.289062 11.878906 " fill-opacity="1" fill-rule="nonzero"/></g></g><g clip-path="url(#8d62a61782)"><g clip-path="url(#567e251624)"><path fill="#ba066c" d="M 176.976562 11.878906 L 176.976562 75.398438 L 155.664062 75.398438 L 155.664062 11.878906 Z M 176.976562 11.878906 " fill-opacity="1" fill-rule="nonzero"/></g></g><g clip-path="url(#dda2a2b13f)"><g clip-path="url(#d5a38f0b8f)"><path fill="#ba066c" d="M 134.664062 11.878906 L 134.664062 75.398438 L 113.351562 75.398438 L 113.351562 11.878906 Z M 134.664062 11.878906 " fill-opacity="1" fill-rule="nonzero"/></g></g><g clip-path="url(#9a35f41a76)"><g clip-path="url(#0d2cf8481c)"><path fill="#ba066c" d="M 261.636719 299.621094 L 261.636719 363.140625 L 240.324219 363.140625 L 240.324219 299.621094 Z M 261.636719 299.621094 " fill-opacity="1" fill-rule="nonzero"/></g></g><g clip-path="url(#03e742aca6)"><g clip-path="url(#de61ba3ea9)"><path fill="#ba066c" d="M 219.289062 299.621094 L 219.289062 363.140625 L 197.976562 363.140625 L 197.976562 299.621094 Z M 219.289062 299.621094 " fill-opacity="1" fill-rule="nonzero"/></g></g><g clip-path="url(#9714098e58)"><g clip-path="url(#59f9a69a56)"><path fill="#ba066c" d="M 176.976562 299.621094 L 176.976562 363.140625 L 155.664062 363.140625 L 155.664062 299.621094 Z M 176.976562 299.621094 " fill-opacity="1" fill-rule="nonzero"/></g></g><g clip-path="url(#cc8595f0c0)"><g clip-path="url(#5e4276df1d)"><path fill="#ba066c" d="M 134.664062 299.621094 L 134.664062 363.140625 L 113.351562 363.140625 L 113.351562 299.621094 Z M 134.664062 299.621094 " fill-opacity="1" fill-rule="nonzero"/></g></g><g fill="#ffffff" fill-opacity="1"><g transform="translate(113.35882, 151.728345)"><g><path d="M 2.65625 0 L 2.65625 -38.0625 L 10.484375 -38.0625 L 10.484375 -20.3125 L 10.578125 -20.3125 C 12.609375 -22.34375 14.773438 -23.359375 17.078125 -23.359375 C 18.203125 -23.359375 19.316406 -23.210938 20.421875 -22.921875 C 21.523438 -22.628906 22.585938 -22.171875 23.609375 -21.546875 C 24.628906 -20.929688 25.453125 -20.054688 26.078125 -18.921875 C 26.710938 -17.785156 27.03125 -16.460938 27.03125 -14.953125 L 27.03125 0 L 19.203125 0 L 19.203125 -12.828125 C 19.203125 -14.015625 18.828125 -15.046875 18.078125 -15.921875 C 17.328125 -16.804688 16.347656 -17.25 15.140625 -17.25 C 13.953125 -17.25 12.878906 -16.789062 11.921875 -15.875 C 10.960938 -14.96875 10.484375 -13.953125 10.484375 -12.828125 L 10.484375 0 Z M 2.65625 0 "/></g></g></g><g fill="#ffffff" fill-opacity="1"><g transform="translate(142.165574, 151.728345)"><g><path d="M 4.203125 -2.8125 C 2.078125 -5.125 1.015625 -7.960938 1.015625 -11.328125 C 1.015625 -14.691406 2.078125 -17.535156 4.203125 -19.859375 C 6.328125 -22.191406 9.023438 -23.359375 12.296875 -23.359375 C 15.304688 -23.359375 17.785156 -22.414062 19.734375 -20.53125 L 19.734375 -22.703125 L 27.5625 -22.703125 L 27.5625 0 L 19.828125 0 L 19.828125 -2.5625 L 19.734375 -2.5625 C 17.785156 -0.414062 15.304688 0.65625 12.296875 0.65625 C 9.023438 0.65625 6.328125 -0.5 4.203125 -2.8125 Z M 10.859375 -15.171875 C 9.847656 -14.171875 9.34375 -12.890625 9.34375 -11.328125 C 9.34375 -9.765625 9.828125 -8.488281 10.796875 -7.5 C 11.765625 -6.507812 13.046875 -6.015625 14.640625 -6.015625 C 16.179688 -6.015625 17.441406 -6.515625 18.421875 -7.515625 C 19.410156 -8.523438 19.90625 -9.796875 19.90625 -11.328125 C 19.90625 -12.890625 19.394531 -14.171875 18.375 -15.171875 C 17.363281 -16.179688 16.117188 -16.6875 14.640625 -16.6875 C 13.140625 -16.6875 11.878906 -16.179688 10.859375 -15.171875 Z M 10.859375 -15.171875 "/></g></g></g><g fill="#ffffff" fill-opacity="1"><g transform="translate(171.945831, 151.728345)"><g><path d="M 2.65625 0 L 2.65625 -22.703125 L 10.484375 -22.703125 L 10.484375 -20.3125 L 10.578125 -20.3125 C 12.609375 -22.34375 14.773438 -23.359375 17.078125 -23.359375 C 18.203125 -23.359375 19.316406 -23.210938 20.421875 -22.921875 C 21.523438 -22.628906 22.585938 -22.171875 23.609375 -21.546875 C 24.628906 -20.929688 25.453125 -20.054688 26.078125 -18.921875 C 26.710938 -17.785156 27.03125 -16.460938 27.03125 -14.953125 L 27.03125 0 L 19.203125 0 L 19.203125 -12.828125 C 19.203125 -14.015625 18.828125 -15.046875 18.078125 -15.921875 C 17.328125 -16.804688 16.347656 -17.25 15.140625 -17.25 C 13.953125 -17.25 12.878906 -16.789062 11.921875 -15.875 C 10.960938 -14.96875 10.484375 -13.953125 10.484375 -12.828125 L 10.484375 0 Z M 2.65625 0 "/></g></g></g><g fill="#ffffff" fill-opacity="1"><g transform="translate(200.752583, 151.728345)"><g><path d="M 4.203125 -2.8125 C 2.078125 -5.125 1.015625 -7.960938 1.015625 -11.328125 C 1.015625 -14.691406 2.078125 -17.535156 4.203125 -19.859375 C 6.328125 -22.191406 9.023438 -23.359375 12.296875 -23.359375 C 15.304688 -23.359375 17.785156 -22.414062 19.734375 -20.53125 L 19.734375 -22.703125 L 27.5625 -22.703125 L 27.5625 0 L 19.828125 0 L 19.828125 -2.5625 L 19.734375 -2.5625 C 17.785156 -0.414062 15.304688 0.65625 12.296875 0.65625 C 9.023438 0.65625 6.328125 -0.5 4.203125 -2.8125 Z M 10.859375 -15.171875 C 9.847656 -14.171875 9.34375 -12.890625 9.34375 -11.328125 C 9.34375 -9.765625 9.828125 -8.488281 10.796875 -7.5 C 11.765625 -6.507812 13.046875 -6.015625 14.640625 -6.015625 C 16.179688 -6.015625 17.441406 -6.515625 18.421875 -7.515625 C 19.410156 -8.523438 19.90625 -9.796875 19.90625 -11.328125 C 19.90625 -12.890625 19.394531 -14.171875 18.375 -15.171875 C 17.363281 -16.179688 16.117188 -16.6875 14.640625 -16.6875 C 13.140625 -16.6875 11.878906 -16.179688 10.859375 -15.171875 Z M 10.859375 -15.171875 "/></g></g></g><g fill="#ffffff" fill-opacity="1"><g transform="translate(113.35882, 205.728342)"><g><path d="M 3.984375 -22.703125 L 3.984375 -31.15625 L 11.8125 -31.15625 L 11.8125 -22.703125 L 16.59375 -22.703125 L 16.59375 -16.71875 L 11.8125 -16.71875 L 11.8125 -9.515625 C 11.8125 -7.421875 12.398438 -6.375 13.578125 -6.375 C 13.878906 -6.375 14.191406 -6.429688 14.515625 -6.546875 C 14.835938 -6.660156 15.085938 -6.78125 15.265625 -6.90625 L 15.53125 -7.078125 L 17.484375 -0.75 C 15.796875 0.1875 13.875 0.65625 11.71875 0.65625 C 10.25 0.65625 8.984375 0.398438 7.921875 -0.109375 C 6.859375 -0.628906 6.050781 -1.320312 5.5 -2.1875 C 4.957031 -3.0625 4.566406 -3.976562 4.328125 -4.9375 C 4.097656 -5.894531 3.984375 -6.921875 3.984375 -8.015625 L 3.984375 -16.71875 L 0.703125 -16.71875 L 0.703125 -22.703125 Z M 3.984375 -22.703125 "/></g></g></g><g fill="#ffffff" fill-opacity="1"><g transform="translate(130.395075, 205.728342)"><g><path d="M 25.625 -10.265625 L 9.15625 -10.265625 C 9.15625 -8.671875 9.671875 -7.488281 10.703125 -6.71875 C 11.734375 -5.957031 12.859375 -5.578125 14.078125 -5.578125 C 15.335938 -5.578125 16.335938 -5.742188 17.078125 -6.078125 C 17.816406 -6.421875 18.660156 -7.09375 19.609375 -8.09375 L 25.265625 -5.265625 C 22.910156 -1.316406 18.988281 0.65625 13.5 0.65625 C 10.070312 0.65625 7.132812 -0.515625 4.6875 -2.859375 C 2.238281 -5.203125 1.015625 -8.023438 1.015625 -11.328125 C 1.015625 -14.628906 2.238281 -17.457031 4.6875 -19.8125 C 7.132812 -22.175781 10.070312 -23.359375 13.5 -23.359375 C 17.09375 -23.359375 20.019531 -22.316406 22.28125 -20.234375 C 24.539062 -18.160156 25.671875 -15.191406 25.671875 -11.328125 C 25.671875 -10.796875 25.65625 -10.441406 25.625 -10.265625 Z M 9.375 -14.609375 L 18.015625 -14.609375 C 17.835938 -15.785156 17.367188 -16.691406 16.609375 -17.328125 C 15.859375 -17.960938 14.894531 -18.28125 13.71875 -18.28125 C 12.414062 -18.28125 11.378906 -17.9375 10.609375 -17.25 C 9.847656 -16.570312 9.4375 -15.691406 9.375 -14.609375 Z M 9.375 -14.609375 "/></g></g></g><g fill="#ffffff" fill-opacity="1"><g transform="translate(156.635332, 205.728342)"><g><path d="M 14.734375 -16.953125 C 13.253906 -16.953125 11.984375 -16.40625 10.921875 -15.3125 C 9.867188 -14.21875 9.34375 -12.90625 9.34375 -11.375 C 9.34375 -9.8125 9.867188 -8.484375 10.921875 -7.390625 C 11.984375 -6.296875 13.253906 -5.75 14.734375 -5.75 C 15.441406 -5.75 16.113281 -5.835938 16.75 -6.015625 C 17.382812 -6.191406 17.847656 -6.367188 18.140625 -6.546875 L 18.546875 -6.8125 L 21.203125 -1.375 C 20.992188 -1.226562 20.703125 -1.039062 20.328125 -0.8125 C 19.960938 -0.59375 19.125 -0.296875 17.8125 0.078125 C 16.5 0.460938 15.085938 0.65625 13.578125 0.65625 C 10.242188 0.65625 7.316406 -0.515625 4.796875 -2.859375 C 2.273438 -5.203125 1.015625 -8.007812 1.015625 -11.28125 C 1.015625 -14.582031 2.273438 -17.421875 4.796875 -19.796875 C 7.316406 -22.171875 10.242188 -23.359375 13.578125 -23.359375 C 15.085938 -23.359375 16.472656 -23.179688 17.734375 -22.828125 C 19.003906 -22.472656 19.90625 -22.117188 20.4375 -21.765625 L 21.203125 -21.234375 L 18.546875 -15.890625 C 17.566406 -16.597656 16.296875 -16.953125 14.734375 -16.953125 Z M 14.734375 -16.953125 "/></g></g></g><g fill="#ffffff" fill-opacity="1"><g transform="translate(177.919584, 205.728342)"><g><path d="M 2.65625 0 L 2.65625 -38.0625 L 10.484375 -38.0625 L 10.484375 -20.3125 L 10.578125 -20.3125 C 12.609375 -22.34375 14.773438 -23.359375 17.078125 -23.359375 C 18.203125 -23.359375 19.316406 -23.210938 20.421875 -22.921875 C 21.523438 -22.628906 22.585938 -22.171875 23.609375 -21.546875 C 24.628906 -20.929688 25.453125 -20.054688 26.078125 -18.921875 C 26.710938 -17.785156 27.03125 -16.460938 27.03125 -14.953125 L 27.03125 0 L 19.203125 0 L 19.203125 -12.828125 C 19.203125 -14.015625 18.828125 -15.046875 18.078125 -15.921875 C 17.328125 -16.804688 16.347656 -17.25 15.140625 -17.25 C 13.953125 -17.25 12.878906 -16.789062 11.921875 -15.875 C 10.960938 -14.96875 10.484375 -13.953125 10.484375 -12.828125 L 10.484375 0 Z M 2.65625 0 "/></g></g></g><g fill="#ffffff" fill-opacity="1"><g transform="translate(113.35882, 259.728338)"><g><path d="M 14.734375 -16.953125 C 13.253906 -16.953125 11.984375 -16.40625 10.921875 -15.3125 C 9.867188 -14.21875 9.34375 -12.90625 9.34375 -11.375 C 9.34375 -9.8125 9.867188 -8.484375 10.921875 -7.390625 C 11.984375 -6.296875 13.253906 -5.75 14.734375 -5.75 C 15.441406 -5.75 16.113281 -5.835938 16.75 -6.015625 C 17.382812 -6.191406 17.847656 -6.367188 18.140625 -6.546875 L 18.546875 -6.8125 L 21.203125 -1.375 C 20.992188 -1.226562 20.703125 -1.039062 20.328125 -0.8125 C 19.960938 -0.59375 19.125 -0.296875 17.8125 0.078125 C 16.5 0.460938 15.085938 0.65625 13.578125 0.65625 C 10.242188 0.65625 7.316406 -0.515625 4.796875 -2.859375 C 2.273438 -5.203125 1.015625 -8.007812 1.015625 -11.28125 C 1.015625 -14.582031 2.273438 -17.421875 4.796875 -19.796875 C 7.316406 -22.171875 10.242188 -23.359375 13.578125 -23.359375 C 15.085938 -23.359375 16.472656 -23.179688 17.734375 -22.828125 C 19.003906 -22.472656 19.90625 -22.117188 20.4375 -21.765625 L 21.203125 -21.234375 L 18.546875 -15.890625 C 17.566406 -16.597656 16.296875 -16.953125 14.734375 -16.953125 Z M 14.734375 -16.953125 "/></g></g></g><g fill="#ffffff" fill-opacity="1"><g transform="translate(134.643076, 259.728338)"><g><path d="M 4.796875 -2.703125 C 2.273438 -4.941406 1.015625 -7.816406 1.015625 -11.328125 C 1.015625 -14.835938 2.328125 -17.71875 4.953125 -19.96875 C 7.578125 -22.226562 10.820312 -23.359375 14.6875 -23.359375 C 18.5 -23.359375 21.707031 -22.222656 24.3125 -19.953125 C 26.925781 -17.679688 28.234375 -14.804688 28.234375 -11.328125 C 28.234375 -7.847656 26.957031 -4.976562 24.40625 -2.71875 C 21.851562 -0.46875 18.613281 0.65625 14.6875 0.65625 C 10.613281 0.65625 7.316406 -0.460938 4.796875 -2.703125 Z M 10.859375 -15.171875 C 9.847656 -14.171875 9.34375 -12.890625 9.34375 -11.328125 C 9.34375 -9.765625 9.828125 -8.488281 10.796875 -7.5 C 11.765625 -6.507812 13.046875 -6.015625 14.640625 -6.015625 C 16.179688 -6.015625 17.441406 -6.515625 18.421875 -7.515625 C 19.410156 -8.523438 19.90625 -9.796875 19.90625 -11.328125 C 19.90625 -12.890625 19.394531 -14.171875 18.375 -15.171875 C 17.363281 -16.179688 16.117188 -16.6875 14.640625 -16.6875 C 13.140625 -16.6875 11.878906 -16.179688 10.859375 -15.171875 Z M 10.859375 -15.171875 "/></g></g></g><g fill="#ffffff" fill-opacity="1"><g transform="translate(163.44983, 259.728338)"><g><path d="M 2.65625 0 L 2.65625 -22.703125 L 10.484375 -22.703125 L 10.484375 -20.3125 L 10.578125 -20.3125 C 12.609375 -22.34375 14.773438 -23.359375 17.078125 -23.359375 C 18.203125 -23.359375 19.316406 -23.210938 20.421875 -22.921875 C 21.523438 -22.628906 22.585938 -22.171875 23.609375 -21.546875 C 24.628906 -20.929688 25.453125 -20.054688 26.078125 -18.921875 C 26.710938 -17.785156 27.03125 -16.460938 27.03125 -14.953125 L 27.03125 0 L 19.203125 0 L 19.203125 -12.828125 C 19.203125 -14.015625 18.828125 -15.046875 18.078125 -15.921875 C 17.328125 -16.804688 16.347656 -17.25 15.140625 -17.25 C 13.953125 -17.25 12.878906 -16.789062 11.921875 -15.875 C 10.960938 -14.96875 10.484375 -13.953125 10.484375 -12.828125 L 10.484375 0 Z M 2.65625 0 "/></g></g></g></svg>